<svg version="1.1" id="Layer_1" xmlns="http://www.w3.org/2000/svg" xmlns:xlink="http://www.w3.org/1999/xlink" x="0px" y="0px"
	 width="100%" viewBox="0 0 2048 538" enable-background="new 0 0 2048 538" xml:space="preserve">
<path fill="#FFFFFF" opacity="1.000000" stroke="none" 
	d="
M1.000000,206.000000 
	C1.000000,137.672043 1.000000,69.344078 1.000000,1.012088 
	C683.607605,1.008058 1366.215210,1.008058 2048.911377,1.008058 
	C2048.911377,180.260147 2048.911377,359.520355 2048.911377,538.890259 
	C1366.333374,538.890259 683.666687,538.890259 1.000003,538.885376 
	C1.000000,430.222748 1.000000,321.565002 1.364642,212.552185 
	C4.758671,221.279373 7.844130,230.343384 10.806963,239.447327 
	C19.786877,267.039978 28.704832,294.652802 37.674606,322.248749 
	C45.403984,346.028595 53.205818,369.784912 60.911194,393.572479 
	C67.331459,413.392731 73.618729,433.256134 80.049202,453.073059 
	C82.120781,459.457092 84.460442,465.754181 86.677452,472.091034 
	C87.020821,391.714386 111.216331,319.715698 160.850082,256.892578 
	C210.720795,193.769516 275.826813,153.981033 355.215302,135.427063 
	C352.069366,133.243652 349.866852,131.765625 347.716949,130.214600 
	C334.608582,120.757744 321.494049,111.309265 308.416595,101.809753 
	C293.493164,90.969315 278.598663,80.088982 263.706085,69.206169 
	C252.472794,60.997406 241.308212,52.693031 229.978455,44.620090 
	C228.689941,43.701969 225.948425,43.149097 224.870789,43.882248 
	C218.183655,48.431774 211.793579,53.416355 205.278534,58.220764 
	C187.297318,71.480698 169.373413,84.819862 151.294434,97.945305 
	C132.861084,111.328041 114.208366,124.408455 95.763222,137.775131 
	C69.828575,156.569229 44.020420,175.537827 18.102274,194.354813 
	C12.523760,198.404922 6.707011,202.126892 1.000000,206.000000 
M378.488831,440.008148 
	C389.981781,404.806213 401.474762,369.604248 412.923950,334.536438 
	C405.816101,332.110626 398.996216,331.990143 391.875732,333.896729 
	C382.249359,336.474213 380.922638,337.576782 381.026154,347.248810 
	C381.101593,354.296021 378.664001,360.564148 375.063599,366.350616 
	C365.223969,382.164551 349.865784,390.681244 333.095551,396.955597 
	C315.700989,403.463531 297.479645,406.454193 277.298920,408.857666 
	C286.869751,387.610046 296.008057,367.322693 304.907776,347.565063 
	C269.124329,352.621246 234.098404,345.390106 198.850143,335.728302 
	C202.629013,331.228729 205.899246,326.705933 209.798065,322.812592 
	C220.625259,312.000610 231.553680,301.278717 242.739609,290.840088 
	C256.904541,277.621521 272.770996,266.706940 290.642365,259.189087 
	C308.405853,251.716599 326.526428,249.296860 344.482788,259.128021 
	C352.133362,263.316711 357.408905,269.943146 363.858948,276.845673 
	C327.890869,280.439240 294.953979,289.494690 265.327545,308.684387 
	C267.162079,308.891632 268.842804,308.547913 270.504700,308.129364 
	C286.545227,304.089294 302.503113,299.675568 318.650940,296.124969 
	C328.138397,294.038788 337.939209,293.405090 347.576263,291.965515 
	C363.041779,289.655365 378.399445,290.663940 393.461731,294.321869 
	C404.306488,296.955536 413.398651,303.028442 420.463501,312.760345 
	C422.588745,305.359985 424.288055,298.696381 426.413757,292.171661 
	C435.004242,265.803436 443.465881,239.386993 452.620117,213.213943 
	C454.439209,208.012970 452.886505,205.608978 449.369965,203.066864 
	C425.661133,185.927551 401.956726,168.781586 378.158234,151.767426 
	C375.789490,150.073959 372.467041,147.753067 370.152283,148.267258 
	C356.208252,151.364807 342.252472,154.643997 328.637817,158.932755 
	C310.111084,164.768875 292.640747,173.191101 275.847656,182.995697 
	C257.567047,193.668747 240.577927,206.113068 225.085556,220.498932 
	C210.719742,233.838669 197.706406,248.412247 186.102936,264.288055 
	C171.204193,284.672363 158.963699,306.563782 150.238892,330.132965 
	C143.222031,349.088226 136.613342,368.348297 134.930786,388.824280 
	C133.861740,401.833954 131.740952,414.779907 131.175110,427.801483 
	C130.673309,439.349335 131.599731,450.964691 132.037903,462.544861 
	C132.182678,466.370270 132.770645,470.178925 133.156448,474.000000 
	C139.772720,474.000000 145.767166,474.000000 151.761612,474.000000 
	C221.917831,474.000000 292.074097,473.977081 362.230194,474.066864 
	C365.785980,474.071411 367.972626,473.410431 369.068634,469.610382 
	C371.864349,459.916992 375.022797,450.328217 378.488831,440.008148 
M1075.000000,304.500000 
	C1075.000000,320.929504 1075.000000,337.359009 1075.000000,353.500000 
	C1092.318481,353.500000 1109.060669,353.500000 1126.194702,353.500000 
	C1126.194702,321.005280 1126.194702,288.599640 1126.194702,256.000336 
	C1166.572266,256.000336 1206.550293,255.978577 1246.527832,256.092316 
	C1247.904297,256.096222 1249.770508,257.105438 1250.576782,258.238068 
	C1261.526245,273.620178 1272.258301,289.157043 1283.186768,304.554321 
	C1294.228516,320.111298 1305.368408,335.600128 1316.656006,350.978790 
	C1317.763794,352.487946 1320.197754,353.847992 1322.033447,353.870728 
	C1339.529541,354.087189 1357.029541,354.016663 1374.528198,353.959656 
	C1375.620239,353.956085 1376.710571,353.374268 1377.627075,353.111481 
	C1354.397949,319.344635 1331.499268,286.058105 1308.609619,252.784668 
	C1314.769897,250.694199 1320.674927,249.628830 1325.583252,246.821121 
	C1334.642456,241.639053 1344.340942,236.655472 1351.576904,229.399170 
	C1366.035645,214.900040 1371.202271,195.846039 1371.792480,175.830460 
	C1372.039307,167.462296 1370.609863,158.897614 1368.869019,150.648849 
	C1365.355835,134.004089 1357.149658,119.721611 1344.100220,108.727669 
	C1327.245728,94.527916 1306.838013,89.305595 1285.483154,89.166740 
	C1216.657349,88.719223 1147.826782,88.998672 1078.998047,89.010429 
	C1077.728516,89.010651 1076.458984,89.166611 1075.000000,89.262337 
	C1075.000000,160.885986 1075.000000,232.192993 1075.000000,304.500000 
M1680.515747,135.009506 
	C1676.953735,131.451447 1673.519165,127.754135 1669.806641,124.360710 
	C1657.235596,112.869934 1642.431885,104.928284 1626.634521,99.140923 
	C1607.276367,92.049141 1586.897217,89.275543 1566.403809,89.131668 
	C1511.431519,88.745712 1456.454590,89.000000 1401.479492,89.000000 
	C1399.698975,89.000000 1397.918457,89.000000 1396.836060,89.000000 
	C1396.836060,177.651535 1396.836060,265.766785 1396.836060,353.000153 
	C1454.390869,353.000153 1511.109253,353.172180 1567.824829,352.863831 
	C1580.064941,352.797302 1592.412476,351.736664 1604.502075,349.819397 
	C1620.788696,347.236511 1635.935547,341.007324 1650.116577,332.458435 
	C1663.205688,324.567871 1674.758301,314.637573 1684.146118,302.879364 
	C1691.772705,293.327148 1697.914185,282.286560 1703.062378,271.142914 
	C1708.267090,259.877075 1711.215210,247.606689 1710.979858,234.927353 
	C1710.740112,222.011871 1711.632202,208.891937 1709.627319,196.242096 
	C1707.436523,182.418411 1703.569824,168.603180 1695.796997,156.520691 
	C1691.170288,149.328690 1685.962036,142.510788 1680.515747,135.009506 
M533.732056,98.030960 
	C530.638794,99.741798 527.489563,101.359497 524.462158,103.179787 
	C512.134033,110.592209 501.712219,119.989685 495.047516,132.931808 
	C487.193420,148.183472 485.334106,164.402618 489.129181,181.026794 
	C491.664734,192.133514 497.285095,201.896713 505.988403,209.371826 
	C517.248840,219.043228 530.951904,223.936646 545.197571,226.865997 
	C558.040039,229.506821 571.071533,231.411209 584.104370,232.896500 
	C599.722656,234.676422 615.429504,235.682938 631.100830,236.990753 
	C635.847290,237.386856 640.614563,237.556091 645.352356,238.029251 
	C658.025879,239.294952 670.708679,240.505341 683.349548,242.050613 
	C693.943359,243.345673 704.235535,245.883484 713.223877,252.040100 
	C721.067627,257.412659 725.371765,265.291534 724.634766,274.455292 
	C723.485657,288.743256 713.542908,297.199432 701.458252,302.696899 
	C682.684082,311.237518 662.370422,313.080475 642.096924,313.819580 
	C631.965271,314.188934 621.672729,313.303894 611.616699,311.852112 
	C596.444092,309.661652 581.138794,307.491669 566.390991,303.473724 
	C545.569092,297.800964 526.317932,287.970001 507.706482,277.076141 
	C505.434753,275.746429 504.516693,275.789764 502.961273,277.860962 
	C494.779205,288.756195 486.370575,299.482178 478.276520,310.441132 
	C477.565521,311.403839 477.954315,314.510590 478.853455,315.123627 
	C487.366455,320.927521 495.636963,327.390686 504.880310,331.748627 
	C518.755798,338.290436 533.113098,344.050262 547.711853,348.758820 
	C567.058777,354.998749 587.272888,357.556732 607.510071,358.850037 
	C620.128723,359.656494 632.856323,359.389862 645.506653,358.889435 
	C657.940918,358.397522 670.379211,357.346893 682.744385,355.922272 
	C701.606567,353.749115 719.602966,348.384613 736.303223,339.216461 
	C752.730652,330.198029 766.142456,318.240051 773.307129,300.299805 
	C779.280212,285.343140 780.704407,269.911621 777.585205,254.267136 
	C773.297363,232.760895 759.978943,218.317383 740.546021,208.921738 
	C716.546021,197.317902 690.696777,193.696030 664.623230,191.030884 
	C653.054382,189.848389 641.454712,188.958130 629.862793,188.011856 
	C613.032471,186.637909 596.147949,185.757782 579.380676,183.842789 
	C569.039001,182.661652 558.800537,180.196457 549.956665,174.005432 
	C539.085632,166.395355 537.753906,154.481339 547.292664,145.524384 
	C551.625000,141.456253 557.234741,138.134155 562.857422,136.166061 
	C582.096863,129.431732 602.086975,127.582451 622.386719,129.006836 
	C631.220825,129.626678 640.170471,129.638275 648.851746,131.158752 
	C662.150940,133.488068 675.535645,136.018600 688.381042,140.061935 
	C702.086060,144.375900 715.232361,150.484085 728.566589,155.945526 
	C732.474548,157.546173 735.739258,158.941818 739.129333,154.541306 
	C743.726929,148.573212 749.008667,143.131210 754.012756,137.477554 
	C758.025452,132.943909 762.061707,128.431168 766.537720,123.403511 
	C762.935303,121.404381 759.606750,119.548424 756.270020,117.707359 
	C747.980225,113.133453 740.022583,107.751335 731.324585,104.166588 
	C713.353821,96.760254 695.094360,90.004898 675.529968,87.780739 
	C663.089661,86.366486 650.725891,84.136925 638.258362,83.151390 
	C628.650940,82.391945 618.926453,82.741493 609.270630,83.076790 
	C600.593628,83.378098 591.923462,84.172035 583.278381,85.031151 
	C566.337708,86.714676 550.017456,90.848541 533.732056,98.030960 
M961.500000,136.000000 
	C992.595520,136.000000 1023.691040,136.000000 1055.000000,136.000000 
	C1055.000000,127.613579 1055.060547,119.801208 1054.982910,111.990219 
	C1054.906982,104.355446 1054.690186,96.722069 1054.540771,89.356033 
	C969.213501,89.356033 885.146667,89.356033 801.358643,89.356033 
	C801.358643,177.783340 801.358643,265.854431 801.358643,353.638672 
	C886.122009,353.638672 970.526550,353.638672 1054.825439,353.638672 
	C1054.825439,337.975555 1054.825439,322.674194 1054.825439,307.000000 
	C1019.875244,307.000000 985.095459,307.173706 950.318176,306.951324 
	C915.297058,306.727356 880.249146,308.113739 845.270386,305.760773 
	C845.270386,283.727844 845.270386,261.989166 845.270386,239.852615 
	C893.278564,239.852615 941.017822,239.852615 988.722107,239.852615 
	C988.722107,224.045212 988.722107,208.639618 988.722107,192.837555 
	C940.706299,192.837555 892.967041,192.837555 845.285339,192.837555 
	C845.285339,173.697128 845.285339,154.958237 845.285339,136.000000 
	C883.880188,136.000000 922.190063,136.000000 961.500000,136.000000 
M1732.000000,146.500000 
	C1732.000000,215.579407 1732.000000,284.658813 1732.000000,353.433990 
	C1749.196167,353.433990 1765.848389,353.433990 1782.735596,353.433990 
	C1782.735596,320.658997 1782.735596,288.454956 1782.735596,256.000000 
	C1801.944946,256.000000 1820.420532,256.109619 1838.894531,255.976410 
	C1873.802368,255.724686 1908.709473,255.333115 1943.616821,255.000122 
	C1956.569946,254.876556 1968.778198,251.669312 1980.886963,247.131317 
	C2012.175903,235.404968 2026.388428,209.674576 2027.830322,179.842194 
	C2028.262329,170.905396 2027.257080,161.779205 2025.879883,152.899597 
	C2022.891968,133.633759 2012.921875,118.099060 1997.633545,106.385056 
	C1981.710938,94.184975 1962.839478,89.263054 1943.181030,89.151878 
	C1874.039307,88.760880 1804.893921,89.000000 1735.750000,89.000000 
	C1734.295532,89.000000 1732.841064,89.000000 1732.000000,89.000000 
	C1732.000000,108.103188 1732.000000,126.801590 1732.000000,146.500000 
M1399.236816,407.000000 
	C1380.850220,407.000000 1362.463623,407.000000 1344.000000,407.000000 
	C1344.000000,428.346191 1343.956299,448.978638 1344.092651,469.609894 
	C1344.102295,471.069458 1345.316772,473.701172 1346.173340,473.787903 
	C1352.877808,474.466309 1359.643433,475.080963 1366.367432,474.894440 
	C1376.031738,474.626465 1385.678711,473.691223 1395.329102,472.986053 
	C1398.730347,472.737549 1402.242065,472.780701 1405.490967,471.903625 
	C1413.922241,469.627502 1420.960571,465.419556 1423.317261,456.183472 
	C1426.162598,445.031433 1425.702148,433.806122 1422.798218,422.817474 
	C1421.328003,417.253601 1417.715210,412.492523 1412.192383,410.173737 
	C1408.408203,408.584961 1404.193604,408.021759 1399.236816,407.000000 
M715.495972,474.000000 
	C726.483459,473.333344 737.497559,472.947205 748.449402,471.905609 
	C756.311951,471.157867 766.647644,463.036041 767.003540,455.123596 
	C767.403503,446.231445 768.529907,437.259277 767.777344,428.455536 
	C766.756226,416.510284 760.032715,409.957672 748.184082,408.093353 
	C742.048035,407.127930 735.732361,407.098083 729.493774,407.032257 
	C715.735107,406.887115 701.973877,406.987183 688.286621,406.987183 
	C688.286621,429.648102 688.286621,451.715424 688.286621,474.000000 
	C697.213562,474.000000 705.855530,474.000000 715.495972,474.000000 
M516.499512,474.000000 
	C528.646179,473.333649 540.874023,473.313965 552.914795,471.803406 
	C563.180420,470.515533 570.615845,464.500671 571.949402,453.532288 
	C572.859802,446.043671 573.553955,438.335419 572.798523,430.882050 
	C571.608276,419.138397 566.926758,409.874207 552.624023,408.044250 
	C543.541626,406.882202 534.349121,406.415314 525.189697,406.068420 
	C516.706665,405.747162 508.201935,405.999969 499.706757,406.000000 
	C492.284302,406.000031 492.296021,405.998901 492.985291,413.035767 
	C493.082245,414.025726 492.999939,415.033325 492.999939,416.032745 
	C493.000031,432.356812 493.000000,448.680847 493.000000,465.004913 
	C493.000000,467.940796 493.000000,470.876678 493.000000,474.000000 
	C500.884216,474.000000 508.192017,474.000000 516.499512,474.000000 
M1443.000000,449.429169 
	C1442.507080,457.125336 1443.329102,464.905090 1450.692505,468.783539 
	C1456.189575,471.678925 1462.803101,473.413635 1469.024902,473.757324 
	C1479.215820,474.320343 1489.544922,473.865082 1499.719238,472.861237 
	C1511.787476,471.670563 1519.203247,465.301453 1519.022095,451.899139 
	C1518.905029,443.238434 1519.291382,434.560303 1518.858887,425.919647 
	C1518.681885,422.382172 1517.530884,418.592133 1515.794800,415.492920 
	C1511.345093,407.549103 1502.914917,406.548370 1495.214355,406.218536 
	C1483.511719,405.717285 1471.666260,405.939758 1460.033569,407.228241 
	C1450.497559,408.284485 1442.888306,414.540558 1442.987549,425.959015 
	C1443.052734,433.454651 1443.000000,440.951294 1443.000000,449.429169 
M638.385803,473.999969 
	C641.959595,473.666168 645.542114,473.406403 649.105469,472.984650 
	C659.258484,471.782990 666.840759,464.664398 666.962952,455.932434 
	C667.116699,444.947571 667.333984,433.944519 666.862427,422.977783 
	C666.617981,417.293427 663.797485,412.094635 658.210815,409.896240 
	C653.351318,407.984009 648.051208,406.326233 642.902954,406.191162 
	C631.854736,405.901245 620.735596,406.169342 609.725159,407.125763 
	C596.170349,408.303253 591.985168,415.955261 591.132812,427.222015 
	C590.469177,435.994720 590.503052,444.893036 591.125183,453.671844 
	C591.910522,464.753998 595.813232,469.770813 606.055603,471.719788 
	C616.282104,473.665771 626.942139,473.333466 638.385803,473.999969 
M1113.609131,462.909973 
	C1114.728149,461.940613 1115.835327,460.144073 1116.967896,460.127869 
	C1130.571899,459.932983 1144.179688,460.001862 1157.567383,460.001862 
	C1158.523804,462.045624 1159.182617,463.701965 1160.042480,465.246429 
	C1163.283813,471.068542 1166.015015,477.699127 1174.895508,475.016235 
	C1176.869141,474.420013 1178.909302,474.044495 1181.008789,473.545990 
	C1180.940063,472.802979 1181.080200,472.040436 1180.790405,471.515320 
	C1169.910522,451.813324 1158.888672,432.188782 1148.165405,412.402344 
	C1146.066406,408.529388 1143.935547,406.253693 1139.197510,406.890015 
	C1136.877075,407.201630 1134.329712,405.847687 1132.015869,406.174530 
	C1129.770386,406.491638 1126.614990,407.405090 1125.704224,409.067444 
	C1113.983276,430.459259 1102.593140,452.032288 1091.111572,473.574097 
	C1106.720093,476.867645 1106.721680,476.007111 1112.996094,463.988647 
	C1113.067627,463.851746 1113.035034,463.660522 1113.609131,462.909973 
M989.309082,434.000214 
	C974.898376,434.000214 960.487671,434.000214 946.354858,434.000214 
	C946.354858,427.881470 946.354858,422.469940 946.354858,416.694336 
	C962.786865,416.694336 978.865295,416.694336 994.642700,416.694336 
	C994.642700,413.223999 994.642700,410.148743 994.642700,407.353302 
	C973.216370,407.353302 952.148193,407.353302 931.351196,407.353302 
	C931.351196,429.443451 931.351196,451.179504 931.351196,472.660950 
	C952.781128,472.660950 973.858887,472.660950 995.000000,472.660950 
	C995.000000,470.989716 994.826050,469.630066 995.030823,468.330109 
	C995.820312,463.317871 993.934204,461.696381 988.773132,461.877136 
	C977.456909,462.273560 966.117126,462.000000 954.786987,462.000000 
	C951.873596,462.000000 948.960266,462.000000 946.366089,462.000000 
	C946.366089,455.525513 946.366089,449.779816 946.366089,443.666809 
	C961.803528,443.666809 976.875671,443.666809 992.935425,443.666809 
	C991.936157,440.043732 991.103149,437.023651 989.309082,434.000214 
M1537.000000,440.500000 
	C1537.000000,451.264282 1537.000000,462.028564 1537.000000,473.000000 
	C1555.385864,473.000000 1573.196289,473.012238 1591.006592,472.987732 
	C1593.913818,472.983704 1598.462036,473.874512 1599.355713,472.486847 
	C1600.814331,470.221497 1599.898926,466.421722 1599.955688,463.268860 
	C1599.960938,462.980927 1599.752930,462.689148 1599.496826,462.008179 
	C1583.886108,462.008179 1568.141357,462.008179 1552.201538,462.008179 
	C1552.201538,455.871765 1552.201538,450.133606 1552.201538,443.996399 
	C1567.468994,443.996399 1582.546875,443.996399 1597.799316,443.996399 
	C1597.799316,440.525726 1597.799316,437.454712 1597.799316,433.985138 
	C1582.527466,433.985138 1567.449585,433.985138 1552.210815,433.985138 
	C1552.210815,428.180115 1552.210815,422.775330 1552.210815,416.973083 
	C1568.160400,416.973083 1583.904541,416.973083 1599.786987,416.973083 
	C1599.786987,413.501160 1599.786987,410.429993 1599.786987,407.192047 
	C1578.480835,407.192047 1557.387817,407.192047 1537.000000,407.192047 
	C1537.000000,418.093689 1537.000000,428.796844 1537.000000,440.500000 
M1090.998779,432.076355 
	C1090.999146,430.079254 1091.282471,428.034180 1090.953247,426.093018 
	C1089.101074,415.175568 1086.948853,410.260620 1076.243652,408.039062 
	C1073.084229,407.383392 1069.801636,407.064423 1066.572754,407.044769 
	C1050.486450,406.946777 1034.399170,407.000000 1018.208496,407.000000 
	C1018.208496,429.526459 1018.208496,451.575806 1018.208496,473.795166 
	C1023.151245,473.795166 1027.884521,473.795166 1033.005493,473.795166 
	C1033.005493,465.530579 1033.005493,457.459717 1033.005493,449.000000 
	C1044.660645,449.000000 1055.938110,449.233185 1067.201294,448.933319 
	C1078.106689,448.642944 1087.160767,446.776703 1090.998779,432.076355 
M407.589050,308.963745 
	C396.940796,299.788177 384.213867,298.231201 370.898071,299.178497 
	C369.555145,299.274017 367.722229,300.620514 367.138702,301.865479 
	C364.384796,307.741241 361.986786,313.783783 359.641266,319.341766 
	C363.575012,320.877167 367.738129,322.502136 371.277100,323.883453 
	C361.342407,330.876953 351.350861,337.950439 341.315826,344.961609 
	C333.608154,350.346710 317.079620,368.345215 316.555206,372.542175 
	C320.320618,369.628082 323.733643,366.935333 327.199921,364.312958 
	C343.280762,352.147125 359.477509,340.176025 378.538666,332.861450 
	C389.911041,328.497375 401.400909,325.823730 414.404633,330.126984 
	C415.377106,326.413635 417.949524,322.170105 416.905640,319.195831 
	C415.532623,315.283936 411.314636,312.370544 407.589050,308.963745 
M859.380737,455.000000 
	C860.821350,455.000000 862.261902,455.000000 863.769409,455.000000 
	C863.769409,443.783264 863.769409,433.056732 863.769409,422.374817 
	C851.720398,422.374817 839.905579,422.374817 828.798462,422.374817 
	C828.798462,433.404297 828.798462,444.078583 828.798462,455.000000 
	C839.152527,455.000000 848.776367,455.000000 859.380737,455.000000 
M1246.000000,426.622681 
	C1246.000000,436.042877 1246.000000,445.463043 1246.000000,454.666626 
	C1258.070312,454.666626 1269.477051,454.666626 1280.663940,454.666626 
	C1280.663940,443.590759 1280.663940,432.850433 1280.663940,422.000092 
	C1270.005127,422.000092 1259.679688,422.126556 1249.360596,421.922424 
	C1246.294556,421.861816 1245.606812,423.042938 1246.000000,426.622681 
z"/>
<path fill="#000000" opacity="1.000000" stroke="none" 
	d="
M1.000000,206.428467 
	C6.707011,202.126892 12.523760,198.404922 18.102274,194.354813 
	C44.020420,175.537827 69.828575,156.569229 95.763222,137.775131 
	C114.208366,124.408455 132.861084,111.328041 151.294434,97.945305 
	C169.373413,84.819862 187.297318,71.480698 205.278534,58.220764 
	C211.793579,53.416355 218.183655,48.431774 224.870789,43.882248 
	C225.948425,43.149097 228.689941,43.701969 229.978455,44.620090 
	C241.308212,52.693031 252.472794,60.997406 263.706085,69.206169 
	C278.598663,80.088982 293.493164,90.969315 308.416595,101.809753 
	C321.494049,111.309265 334.608582,120.757744 347.716949,130.214600 
	C349.866852,131.765625 352.069366,133.243652 355.215302,135.427063 
	C275.826813,153.981033 210.720795,193.769516 160.850082,256.892578 
	C111.216331,319.715698 87.020821,391.714386 86.677452,472.091034 
	C84.460442,465.754181 82.120781,459.457092 80.049202,453.073059 
	C73.618729,433.256134 67.331459,413.392731 60.911194,393.572479 
	C53.205818,369.784912 45.403984,346.028595 37.674606,322.248749 
	C28.704832,294.652802 19.786877,267.039978 10.806963,239.447327 
	C7.844130,230.343384 4.758671,221.279373 1.364642,212.098541 
	C1.000000,210.285645 1.000000,208.571289 1.000000,206.428467 
M131.130371,205.994553 
	C123.563858,208.543045 115.997345,211.091553 107.815125,213.847412 
	C108.288689,211.991638 108.510406,210.125885 109.237701,208.484085 
	C110.670341,205.250000 112.608452,202.227356 113.882324,198.940826 
	C114.486694,197.381592 114.044456,195.416672 114.076363,193.635544 
	C112.504974,194.471329 110.750046,195.082016 109.396812,196.185379 
	C105.428391,199.420959 101.619766,202.852554 96.829880,207.003479 
	C96.829880,197.293854 96.829880,188.870316 96.829880,180.446777 
	C93.643616,185.712036 91.364838,191.125305 88.980316,196.491592 
	C87.995361,198.708191 86.783493,200.823944 85.674828,202.985565 
	C84.447594,200.774399 83.070724,198.631653 82.022179,196.338776 
	C79.267464,190.315018 76.655693,184.225876 73.500000,177.056381 
	C73.500000,187.611282 73.500000,196.772369 73.500000,206.821396 
	C66.183281,200.089523 59.503445,193.943619 52.823608,187.797714 
	C52.656013,187.957916 52.488422,188.118118 52.320831,188.278305 
	C56.062626,196.592239 59.804420,204.906174 63.926994,214.066147 
	C53.962784,210.726959 45.247173,207.806198 35.176540,204.431335 
	C43.411236,211.554398 50.451202,217.644012 58.259445,224.398193 
	C47.361118,225.457672 37.956688,226.371918 27.616114,227.377167 
	C37.625679,230.472321 46.704918,233.279800 56.814011,236.405746 
	C47.808735,241.469330 39.978806,245.872040 32.148880,250.274750 
	C32.279079,250.552353 32.409275,250.829956 32.539474,251.107574 
	C41.528156,250.018173 50.516838,248.928787 60.388592,247.732376 
	C55.230297,254.790970 50.586948,261.144897 45.943600,267.498840 
	C46.239029,267.946381 46.534454,268.393890 46.829884,268.841400 
	C53.682259,265.123383 60.534630,261.405365 68.577690,257.041290 
	C66.573318,265.823883 64.880302,273.242188 63.187294,280.660492 
	C70.580688,276.560333 73.367958,268.353638 79.438805,262.470337 
	C81.052994,269.834534 82.481995,276.565643 84.047852,283.264771 
	C84.277534,284.247406 85.157822,285.077972 85.737068,285.978882 
	C86.158249,285.086578 86.765083,284.235016 86.971062,283.295532 
	C88.529999,276.184998 90.010315,269.057251 91.628387,261.399048 
	C97.175880,269.329987 102.273865,276.618317 107.371857,283.906647 
	C107.735229,283.757019 108.098595,283.607422 108.461960,283.457825 
	C106.578476,275.059265 104.694984,266.660706 102.485649,256.809174 
	C111.221764,261.884003 118.715515,266.237183 126.209274,270.590332 
	C126.404594,270.279755 126.599907,269.969177 126.795227,269.658600 
	C121.486153,262.647675 116.177078,255.636780 110.281357,247.851166 
	C120.333839,248.970261 129.412582,249.980957 138.491333,250.991653 
	C138.529007,250.708023 138.566666,250.424377 138.604340,250.140747 
	C130.729645,245.678421 122.854950,241.216110 114.071419,236.238770 
	C124.012497,233.226578 132.856888,230.546677 141.701279,227.866791 
	C141.616943,227.643356 141.532608,227.419922 141.448257,227.196503 
	C131.965714,226.304657 122.483154,225.412811 112.745262,224.496964 
	C119.692108,218.282944 126.233879,212.431274 133.221191,206.197113 
	C133.352844,205.861786 133.484497,205.526474 133.616165,205.191162 
	C133.052505,205.434143 132.488861,205.677124 131.130371,205.994553 
z"/>
<path fill="#000000" opacity="1.000000" stroke="none" 
	d="
M378.262512,440.352844 
	C375.022797,450.328217 371.864349,459.916992 369.068634,469.610382 
	C367.972626,473.410431 365.785980,474.071411 362.230194,474.066864 
	C292.074097,473.977081 221.917831,474.000000 151.761612,474.000000 
	C145.767166,474.000000 139.772720,474.000000 133.156448,474.000000 
	C132.770645,470.178925 132.182678,466.370270 132.037903,462.544861 
	C131.599731,450.964691 130.673309,439.349335 131.175110,427.801483 
	C131.740952,414.779907 133.861740,401.833954 134.930786,388.824280 
	C136.613342,368.348297 143.222031,349.088226 150.238892,330.132965 
	C158.963699,306.563782 171.204193,284.672363 186.102936,264.288055 
	C197.706406,248.412247 210.719742,233.838669 225.085556,220.498932 
	C240.577927,206.113068 257.567047,193.668747 275.847656,182.995697 
	C292.640747,173.191101 310.111084,164.768875 328.637817,158.932755 
	C342.252472,154.643997 356.208252,151.364807 370.152283,148.267258 
	C372.467041,147.753067 375.789490,150.073959 378.158234,151.767426 
	C401.956726,168.781586 425.661133,185.927551 449.369965,203.066864 
	C452.886505,205.608978 454.439209,208.012970 452.620117,213.213943 
	C443.465881,239.386993 435.004242,265.803436 426.413757,292.171661 
	C424.288055,298.696381 422.588745,305.359985 420.463501,312.760345 
	C413.398651,303.028442 404.306488,296.955536 393.461731,294.321869 
	C378.399445,290.663940 363.041779,289.655365 347.576263,291.965515 
	C337.939209,293.405090 328.138397,294.038788 318.650940,296.124969 
	C302.503113,299.675568 286.545227,304.089294 270.504700,308.129364 
	C268.842804,308.547913 267.162079,308.891632 265.327545,308.684387 
	C294.953979,289.494690 327.890869,280.439240 363.858948,276.845673 
	C357.408905,269.943146 352.133362,263.316711 344.482788,259.128021 
	C326.526428,249.296860 308.405853,251.716599 290.642365,259.189087 
	C272.770996,266.706940 256.904541,277.621521 242.739609,290.840088 
	C231.553680,301.278717 220.625259,312.000610 209.798065,322.812592 
	C205.899246,326.705933 202.629013,331.228729 198.850143,335.728302 
	C234.098404,345.390106 269.124329,352.621246 304.907776,347.565063 
	C296.008057,367.322693 286.869751,387.610046 277.298920,408.857666 
	C297.479645,406.454193 315.700989,403.463531 333.095551,396.955597 
	C349.865784,390.681244 365.223969,382.164551 375.063599,366.350616 
	C378.664001,360.564148 381.101593,354.296021 381.026154,347.248810 
	C380.922638,337.576782 382.249359,336.474213 391.875732,333.896729 
	C398.996216,331.990143 405.816101,332.110626 412.923950,334.536438 
	C401.474762,369.604248 389.981781,404.806213 378.262512,440.352844 
z"/>
<path fill="#000000" opacity="1.000000" stroke="none" 
	d="
M1075.000000,304.000000 
	C1075.000000,232.192993 1075.000000,160.885986 1075.000000,89.262337 
	C1076.458984,89.166611 1077.728516,89.010651 1078.998047,89.010429 
	C1147.826782,88.998672 1216.657349,88.719223 1285.483154,89.166740 
	C1306.838013,89.305595 1327.245728,94.527916 1344.100220,108.727669 
	C1357.149658,119.721611 1365.355835,134.004089 1368.869019,150.648849 
	C1370.609863,158.897614 1372.039307,167.462296 1371.792480,175.830460 
	C1371.202271,195.846039 1366.035645,214.900040 1351.576904,229.399170 
	C1344.340942,236.655472 1334.642456,241.639053 1325.583252,246.821121 
	C1320.674927,249.628830 1314.769897,250.694199 1308.609619,252.784668 
	C1331.499268,286.058105 1354.397949,319.344635 1377.627075,353.111481 
	C1376.710571,353.374268 1375.620239,353.956085 1374.528198,353.959656 
	C1357.029541,354.016663 1339.529541,354.087189 1322.033447,353.870728 
	C1320.197754,353.847992 1317.763794,352.487946 1316.656006,350.978790 
	C1305.368408,335.600128 1294.228516,320.111298 1283.186768,304.554321 
	C1272.258301,289.157043 1261.526245,273.620178 1250.576782,258.238068 
	C1249.770508,257.105438 1247.904297,256.096222 1246.527832,256.092316 
	C1206.550293,255.978577 1166.572266,256.000336 1126.194702,256.000336 
	C1126.194702,288.599640 1126.194702,321.005280 1126.194702,353.500000 
	C1109.060669,353.500000 1092.318481,353.500000 1075.000000,353.500000 
	C1075.000000,337.359009 1075.000000,320.929504 1075.000000,304.000000 
M1140.504761,209.000000 
	C1181.973022,209.000000 1223.441895,209.118881 1264.909058,208.908951 
	C1274.230835,208.861755 1283.692017,208.458466 1292.825439,206.782578 
	C1302.502563,205.006927 1310.880127,200.394379 1315.757935,190.818939 
	C1320.199829,182.099319 1319.675537,172.889771 1318.700073,163.892822 
	C1317.949829,156.973358 1313.857300,150.755341 1308.470337,146.273972 
	C1299.268311,138.618790 1287.881470,136.181976 1276.335938,136.116547 
	C1227.708008,135.840988 1179.077637,135.997971 1130.448242,136.009933 
	C1129.017578,136.010284 1127.586914,136.157837 1126.290894,136.229340 
	C1126.290894,160.672592 1126.290894,184.732025 1126.290894,209.000000 
	C1130.888550,209.000000 1135.198242,209.000000 1140.504761,209.000000 
z"/>
<path fill="#000000" opacity="1.000000" stroke="none" 
	d="
M1680.765503,135.267120 
	C1685.962036,142.510788 1691.170288,149.328690 1695.796997,156.520691 
	C1703.569824,168.603180 1707.436523,182.418411 1709.627319,196.242096 
	C1711.632202,208.891937 1710.740112,222.011871 1710.979858,234.927353 
	C1711.215210,247.606689 1708.267090,259.877075 1703.062378,271.142914 
	C1697.914185,282.286560 1691.772705,293.327148 1684.146118,302.879364 
	C1674.758301,314.637573 1663.205688,324.567871 1650.116577,332.458435 
	C1635.935547,341.007324 1620.788696,347.236511 1604.502075,349.819397 
	C1592.412476,351.736664 1580.064941,352.797302 1567.824829,352.863831 
	C1511.109253,353.172180 1454.390869,353.000153 1396.836060,353.000153 
	C1396.836060,265.766785 1396.836060,177.651535 1396.836060,89.000000 
	C1397.918457,89.000000 1399.698975,89.000000 1401.479492,89.000000 
	C1456.454590,89.000000 1511.431519,88.745712 1566.403809,89.131668 
	C1586.897217,89.275543 1607.276367,92.049141 1626.634521,99.140923 
	C1642.431885,104.928284 1657.235596,112.869934 1669.806641,124.360710 
	C1673.519165,127.754135 1676.953735,131.451447 1680.765503,135.267120 
M1447.000000,212.500000 
	C1447.000000,243.473587 1447.000000,274.447174 1447.000000,306.003448 
	C1449.965698,306.345276 1452.807861,306.974121 1455.645386,306.954468 
	C1494.050293,306.688934 1532.454224,306.244720 1570.859253,306.062653 
	C1580.395752,306.017426 1589.753906,305.521301 1599.052246,303.063751 
	C1622.587769,296.843323 1639.076782,282.018646 1649.503540,260.698517 
	C1657.582153,244.179871 1658.515869,226.303177 1656.067627,208.129532 
	C1653.421509,188.488464 1645.200928,172.158051 1630.399536,158.693848 
	C1613.405762,143.235275 1593.097900,136.607971 1570.972046,136.204010 
	C1531.333862,135.480301 1491.672852,136.052734 1452.021729,135.918594 
	C1448.046753,135.905167 1446.888184,137.057922 1446.916748,141.027679 
	C1447.085693,164.517441 1447.000000,188.009033 1447.000000,212.500000 
z"/>
<path fill="#000000" opacity="1.000000" stroke="none" 
	d="
M534.123779,98.015335 
	C550.017456,90.848541 566.337708,86.714676 583.278381,85.031151 
	C591.923462,84.172035 600.593628,83.378098 609.270630,83.076790 
	C618.926453,82.741493 628.650940,82.391945 638.258362,83.151390 
	C650.725891,84.136925 663.089661,86.366486 675.529968,87.780739 
	C695.094360,90.004898 713.353821,96.760254 731.324585,104.166588 
	C740.022583,107.751335 747.980225,113.133453 756.270020,117.707359 
	C759.606750,119.548424 762.935303,121.404381 766.537720,123.403511 
	C762.061707,128.431168 758.025452,132.943909 754.012756,137.477554 
	C749.008667,143.131210 743.726929,148.573212 739.129333,154.541306 
	C735.739258,158.941818 732.474548,157.546173 728.566589,155.945526 
	C715.232361,150.484085 702.086060,144.375900 688.381042,140.061935 
	C675.535645,136.018600 662.150940,133.488068 648.851746,131.158752 
	C640.170471,129.638275 631.220825,129.626678 622.386719,129.006836 
	C602.086975,127.582451 582.096863,129.431732 562.857422,136.166061 
	C557.234741,138.134155 551.625000,141.456253 547.292664,145.524384 
	C537.753906,154.481339 539.085632,166.395355 549.956665,174.005432 
	C558.800537,180.196457 569.039001,182.661652 579.380676,183.842789 
	C596.147949,185.757782 613.032471,186.637909 629.862793,188.011856 
	C641.454712,188.958130 653.054382,189.848389 664.623230,191.030884 
	C690.696777,193.696030 716.546021,197.317902 740.546021,208.921738 
	C759.978943,218.317383 773.297363,232.760895 777.585205,254.267136 
	C780.704407,269.911621 779.280212,285.343140 773.307129,300.299805 
	C766.142456,318.240051 752.730652,330.198029 736.303223,339.216461 
	C719.602966,348.384613 701.606567,353.749115 682.744385,355.922272 
	C670.379211,357.346893 657.940918,358.397522 645.506653,358.889435 
	C632.856323,359.389862 620.128723,359.656494 607.510071,358.850037 
	C587.272888,357.556732 567.058777,354.998749 547.711853,348.758820 
	C533.113098,344.050262 518.755798,338.290436 504.880310,331.748627 
	C495.636963,327.390686 487.366455,320.927521 478.853455,315.123627 
	C477.954315,314.510590 477.565521,311.403839 478.276520,310.441132 
	C486.370575,299.482178 494.779205,288.756195 502.961273,277.860962 
	C504.516693,275.789764 505.434753,275.746429 507.706482,277.076141 
	C526.317932,287.970001 545.569092,297.800964 566.390991,303.473724 
	C581.138794,307.491669 596.444092,309.661652 611.616699,311.852112 
	C621.672729,313.303894 631.965271,314.188934 642.096924,313.819580 
	C662.370422,313.080475 682.684082,311.237518 701.458252,302.696899 
	C713.542908,297.199432 723.485657,288.743256 724.634766,274.455292 
	C725.371765,265.291534 721.067627,257.412659 713.223877,252.040100 
	C704.235535,245.883484 693.943359,243.345673 683.349548,242.050613 
	C670.708679,240.505341 658.025879,239.294952 645.352356,238.029251 
	C640.614563,237.556091 635.847290,237.386856 631.100830,236.990753 
	C615.429504,235.682938 599.722656,234.676422 584.104370,232.896500 
	C571.071533,231.411209 558.040039,229.506821 545.197571,226.865997 
	C530.951904,223.936646 517.248840,219.043228 505.988403,209.371826 
	C497.285095,201.896713 491.664734,192.133514 489.129181,181.026794 
	C485.334106,164.402618 487.193420,148.183472 495.047516,132.931808 
	C501.712219,119.989685 512.134033,110.592209 524.462158,103.179787 
	C527.489563,101.359497 530.638794,99.741798 534.123779,98.015335 
z"/>
<path fill="#000000" opacity="1.000000" stroke="none" 
	d="
M961.000000,136.000000 
	C922.190063,136.000000 883.880188,136.000000 845.285339,136.000000 
	C845.285339,154.958237 845.285339,173.697128 845.285339,192.837555 
	C892.967041,192.837555 940.706299,192.837555 988.722107,192.837555 
	C988.722107,208.639618 988.722107,224.045212 988.722107,239.852615 
	C941.017822,239.852615 893.278564,239.852615 845.270386,239.852615 
	C845.270386,261.989166 845.270386,283.727844 845.270386,305.760773 
	C880.249146,308.113739 915.297058,306.727356 950.318176,306.951324 
	C985.095459,307.173706 1019.875244,307.000000 1054.825439,307.000000 
	C1054.825439,322.674194 1054.825439,337.975555 1054.825439,353.638672 
	C970.526550,353.638672 886.122009,353.638672 801.358643,353.638672 
	C801.358643,265.854431 801.358643,177.783340 801.358643,89.356033 
	C885.146667,89.356033 969.213501,89.356033 1054.540771,89.356033 
	C1054.690186,96.722069 1054.906982,104.355446 1054.982910,111.990219 
	C1055.060547,119.801208 1055.000000,127.613579 1055.000000,136.000000 
	C1023.691040,136.000000 992.595520,136.000000 961.000000,136.000000 
z"/>
<path fill="#000000" opacity="1.000000" stroke="none" 
	d="
M1732.000000,146.000000 
	C1732.000000,126.801590 1732.000000,108.103188 1732.000000,89.000000 
	C1732.841064,89.000000 1734.295532,89.000000 1735.750000,89.000000 
	C1804.893921,89.000000 1874.039307,88.760880 1943.181030,89.151878 
	C1962.839478,89.263054 1981.710938,94.184975 1997.633545,106.385056 
	C2012.921875,118.099060 2022.891968,133.633759 2025.879883,152.899597 
	C2027.257080,161.779205 2028.262329,170.905396 2027.830322,179.842194 
	C2026.388428,209.674576 2012.175903,235.404968 1980.886963,247.131317 
	C1968.778198,251.669312 1956.569946,254.876556 1943.616821,255.000122 
	C1908.709473,255.333115 1873.802368,255.724686 1838.894531,255.976410 
	C1820.420532,256.109619 1801.944946,256.000000 1782.735596,256.000000 
	C1782.735596,288.454956 1782.735596,320.658997 1782.735596,353.433990 
	C1765.848389,353.433990 1749.196167,353.433990 1732.000000,353.433990 
	C1732.000000,284.658813 1732.000000,215.579407 1732.000000,146.000000 
M1975.054932,165.429077 
	C1974.438721,157.878403 1971.081665,151.843140 1965.454712,146.767059 
	C1956.015503,138.252014 1944.432739,136.157944 1932.515259,136.098724 
	C1884.541504,135.860321 1836.565674,136.000000 1788.590698,136.000000 
	C1786.793823,136.000000 1784.996948,136.000000 1782.602051,136.000000 
	C1782.602051,160.562103 1782.602051,184.695450 1782.602051,209.000000 
	C1784.442505,209.000000 1786.260986,209.000000 1788.079468,209.000000 
	C1832.389771,209.000000 1876.700439,209.112259 1921.009888,208.909180 
	C1930.333496,208.866455 1939.781250,208.400574 1948.935913,206.789429 
	C1957.841797,205.222076 1965.838989,201.462051 1971.153198,192.978699 
	C1976.513184,184.422256 1976.342285,175.429337 1975.054932,165.429077 
z"/>
<path fill="#000000" opacity="1.000000" stroke="none" 
	d="
M1399.704102,407.000031 
	C1404.193604,408.021759 1408.408203,408.584961 1412.192383,410.173737 
	C1417.715210,412.492523 1421.328003,417.253601 1422.798218,422.817474 
	C1425.702148,433.806122 1426.162598,445.031433 1423.317261,456.183472 
	C1420.960571,465.419556 1413.922241,469.627502 1405.490967,471.903625 
	C1402.242065,472.780701 1398.730347,472.737549 1395.329102,472.986053 
	C1385.678711,473.691223 1376.031738,474.626465 1366.367432,474.894440 
	C1359.643433,475.080963 1352.877808,474.466309 1346.173340,473.787903 
	C1345.316772,473.701172 1344.102295,471.069458 1344.092651,469.609894 
	C1343.956299,448.978638 1344.000000,428.346191 1344.000000,407.000000 
	C1362.463623,407.000000 1380.850220,407.000000 1399.704102,407.000031 
M1407.087402,456.369476 
	C1407.368164,455.975922 1407.875977,455.593445 1407.895996,455.187073 
	C1408.297607,446.977509 1408.276733,438.727264 1409.120972,430.565918 
	C1409.747803,424.505432 1404.089111,418.562408 1398.778442,418.258636 
	C1385.661865,417.508331 1372.473755,418.012543 1359.217407,418.012543 
	C1359.217407,432.205414 1359.217407,446.923920 1359.217407,461.999298 
	C1371.867065,461.999298 1384.318848,462.346191 1396.727661,461.769165 
	C1400.067383,461.613831 1403.276489,458.650482 1407.087402,456.369476 
z"/>
<path fill="#000000" opacity="1.000000" stroke="none" 
	d="
M714.996765,474.000000 
	C705.855530,474.000000 697.213562,474.000000 688.286621,474.000000 
	C688.286621,451.715424 688.286621,429.648102 688.286621,406.987183 
	C701.973877,406.987183 715.735107,406.887115 729.493774,407.032257 
	C735.732361,407.098083 742.048035,407.127930 748.184082,408.093353 
	C760.032715,409.957672 766.756226,416.510284 767.777344,428.455536 
	C768.529907,437.259277 767.403503,446.231445 767.003540,455.123596 
	C766.647644,463.036041 756.311951,471.157867 748.449402,471.905609 
	C737.497559,472.947205 726.483459,473.333344 714.996765,474.000000 
M753.000000,433.658447 
	C753.858459,424.547516 749.348145,419.048096 742.215088,418.319061 
	C729.305420,416.999664 716.255798,417.049530 703.276428,416.528168 
	C703.276428,432.292267 703.276428,447.027771 703.276428,461.999603 
	C715.855652,461.999603 728.170837,462.309784 740.459290,461.871918 
	C746.832703,461.644806 751.725769,458.158325 752.014893,452.307983 
	C752.306335,446.409943 752.668701,440.515411 753.000000,433.658447 
z"/>
<path fill="#000000" opacity="1.000000" stroke="none" 
	d="
M515.999634,474.000000 
	C508.192017,474.000000 500.884216,474.000000 493.000000,474.000000 
	C493.000000,470.876678 493.000000,467.940796 493.000000,465.004913 
	C493.000000,448.680847 493.000031,432.356812 492.999939,416.032745 
	C492.999939,415.033325 493.082245,414.025726 492.985291,413.035767 
	C492.296021,405.998901 492.284302,406.000031 499.706757,406.000000 
	C508.201935,405.999969 516.706665,405.747162 525.189697,406.068420 
	C534.349121,406.415314 543.541626,406.882202 552.624023,408.044250 
	C566.926758,409.874207 571.608276,419.138397 572.798523,430.882050 
	C573.553955,438.335419 572.859802,446.043671 571.949402,453.532288 
	C570.615845,464.500671 563.180420,470.515533 552.914795,471.803406 
	C540.874023,473.313965 528.646179,473.333649 515.999634,474.000000 
M507.000000,454.439453 
	C507.000000,456.875580 507.000000,459.311676 507.000000,461.999664 
	C520.157043,461.999664 532.802124,462.397186 545.406616,461.854218 
	C553.277954,461.515198 556.899597,457.145905 557.039734,451.869110 
	C557.218506,445.134583 557.946960,438.406128 557.921631,431.677032 
	C557.895996,424.879730 553.925720,419.833527 547.716553,418.327118 
	C544.411377,417.525269 540.943115,417.125793 537.538269,417.057648 
	C528.882507,416.884369 520.218079,417.128784 511.563110,416.936615 
	C508.110321,416.859924 506.868561,417.931396 506.931793,421.484650 
	C507.121338,432.138763 507.000000,442.798462 507.000000,454.439453 
z"/>
<path fill="#000000" opacity="1.000000" stroke="none" 
	d="
M1443.000000,448.938354 
	C1443.000000,440.951294 1443.052734,433.454651 1442.987549,425.959015 
	C1442.888306,414.540558 1450.497559,408.284485 1460.033569,407.228241 
	C1471.666260,405.939758 1483.511719,405.717285 1495.214355,406.218536 
	C1502.914917,406.548370 1511.345093,407.549103 1515.794800,415.492920 
	C1517.530884,418.592133 1518.681885,422.382172 1518.858887,425.919647 
	C1519.291382,434.560303 1518.905029,443.238434 1519.022095,451.899139 
	C1519.203247,465.301453 1511.787476,471.670563 1499.719238,472.861237 
	C1489.544922,473.865082 1479.215820,474.320343 1469.024902,473.757324 
	C1462.803101,473.413635 1456.189575,471.678925 1450.692505,468.783539 
	C1443.329102,464.905090 1442.507080,457.125336 1443.000000,448.938354 
M1501.522827,420.026611 
	C1500.082886,419.351715 1498.671265,418.166718 1497.198486,418.085297 
	C1488.152222,417.585266 1479.073608,416.819000 1470.041504,417.142181 
	C1460.459351,417.485046 1458.018066,420.769928 1458.001587,430.723175 
	C1457.992798,436.047546 1458.000000,441.371918 1458.000000,446.696289 
	C1458.000000,459.255157 1457.891846,460.004669 1470.383423,461.806763 
	C1479.164551,463.073517 1488.309570,462.265778 1497.250000,461.707245 
	C1499.943481,461.538971 1502.946777,459.696686 1503.042480,455.737000 
	C1503.241455,447.515656 1503.902344,439.299408 1503.888550,431.081848 
	C1503.882690,427.627289 1502.647217,424.174805 1501.522827,420.026611 
z"/>
<path fill="#000000" opacity="1.000000" stroke="none" 
	d="
M637.898926,473.999969 
	C626.942139,473.333466 616.282104,473.665771 606.055603,471.719788 
	C595.813232,469.770813 591.910522,464.753998 591.125183,453.671844 
	C590.503052,444.893036 590.469177,435.994720 591.132812,427.222015 
	C591.985168,415.955261 596.170349,408.303253 609.725159,407.125763 
	C620.735596,406.169342 631.854736,405.901245 642.902954,406.191162 
	C648.051208,406.326233 653.351318,407.984009 658.210815,409.896240 
	C663.797485,412.094635 666.617981,417.293427 666.862427,422.977783 
	C667.333984,433.944519 667.116699,444.947571 666.962952,455.932434 
	C666.840759,464.664398 659.258484,471.782990 649.105469,472.984650 
	C645.542114,473.406403 641.959595,473.666168 637.898926,473.999969 
M652.000000,426.861084 
	C652.146790,421.628357 649.750610,418.348175 644.431213,418.046204 
	C635.402588,417.533691 626.344910,416.938934 617.321228,417.183685 
	C612.760803,417.307404 607.545898,418.697906 607.087830,424.705109 
	C606.425476,433.391815 605.920105,442.131744 606.121216,450.831116 
	C606.311035,459.044128 608.870911,461.535034 616.947083,461.913330 
	C625.396362,462.309113 633.887146,462.236603 642.343994,461.931488 
	C650.089172,461.652069 651.975830,459.394012 651.995483,451.723022 
	C652.015869,443.745514 652.000000,435.767944 652.000000,426.861084 
z"/>
<path fill="#000000" opacity="1.000000" stroke="none" 
	d="
M1113.330078,463.202301 
	C1113.035034,463.660522 1113.067627,463.851746 1112.996094,463.988647 
	C1106.721680,476.007111 1106.720093,476.867645 1091.111572,473.574097 
	C1102.593140,452.032288 1113.983276,430.459259 1125.704224,409.067444 
	C1126.614990,407.405090 1129.770386,406.491638 1132.015869,406.174530 
	C1134.329712,405.847687 1136.877075,407.201630 1139.197510,406.890015 
	C1143.935547,406.253693 1146.066406,408.529388 1148.165405,412.402344 
	C1158.888672,432.188782 1169.910522,451.813324 1180.790405,471.515320 
	C1181.080200,472.040436 1180.940063,472.802979 1181.008789,473.545990 
	C1178.909302,474.044495 1176.869141,474.420013 1174.895508,475.016235 
	C1166.015015,477.699127 1163.283813,471.068542 1160.042480,465.246429 
	C1159.182617,463.701965 1158.523804,462.045624 1157.567383,460.001862 
	C1144.179688,460.001862 1130.571899,459.932983 1116.967896,460.127869 
	C1115.835327,460.144073 1114.728149,461.940613 1113.330078,463.202301 
M1140.964966,428.607178 
	C1139.419800,425.938446 1137.874634,423.269714 1136.058960,420.133850 
	C1130.416992,430.607666 1125.269043,440.164185 1120.300415,449.387817 
	C1130.857056,449.387817 1141.190552,449.387817 1152.062500,449.387817 
	C1148.130859,442.251221 1144.582031,435.809723 1140.964966,428.607178 
z"/>
<path fill="#000000" opacity="1.000000" stroke="none" 
	d="
M989.789612,434.001892 
	C991.103149,437.023651 991.936157,440.043732 992.935425,443.666809 
	C976.875671,443.666809 961.803528,443.666809 946.366089,443.666809 
	C946.366089,449.779816 946.366089,455.525513 946.366089,462.000000 
	C948.960266,462.000000 951.873596,462.000000 954.786987,462.000000 
	C966.117126,462.000000 977.456909,462.273560 988.773132,461.877136 
	C993.934204,461.696381 995.820312,463.317871 995.030823,468.330109 
	C994.826050,469.630066 995.000000,470.989716 995.000000,472.660950 
	C973.858887,472.660950 952.781128,472.660950 931.351196,472.660950 
	C931.351196,451.179504 931.351196,429.443451 931.351196,407.353302 
	C952.148193,407.353302 973.216370,407.353302 994.642700,407.353302 
	C994.642700,410.148743 994.642700,413.223999 994.642700,416.694336 
	C978.865295,416.694336 962.786865,416.694336 946.354858,416.694336 
	C946.354858,422.469940 946.354858,427.881470 946.354858,434.000214 
	C960.487671,434.000214 974.898376,434.000214 989.789612,434.001892 
z"/>
<path fill="#000000" opacity="1.000000" stroke="none" 
	d="
M1537.000000,440.000000 
	C1537.000000,428.796844 1537.000000,418.093689 1537.000000,407.192047 
	C1557.387817,407.192047 1578.480835,407.192047 1599.786987,407.192047 
	C1599.786987,410.429993 1599.786987,413.501160 1599.786987,416.973083 
	C1583.904541,416.973083 1568.160400,416.973083 1552.210815,416.973083 
	C1552.210815,422.775330 1552.210815,428.180115 1552.210815,433.985138 
	C1567.449585,433.985138 1582.527466,433.985138 1597.799316,433.985138 
	C1597.799316,437.454712 1597.799316,440.525726 1597.799316,443.996399 
	C1582.546875,443.996399 1567.468994,443.996399 1552.201538,443.996399 
	C1552.201538,450.133606 1552.201538,455.871765 1552.201538,462.008179 
	C1568.141357,462.008179 1583.886108,462.008179 1599.496826,462.008179 
	C1599.752930,462.689148 1599.960938,462.980927 1599.955688,463.268860 
	C1599.898926,466.421722 1600.814331,470.221497 1599.355713,472.486847 
	C1598.462036,473.874512 1593.913818,472.983704 1591.006592,472.987732 
	C1573.196289,473.012238 1555.385864,473.000000 1537.000000,473.000000 
	C1537.000000,462.028564 1537.000000,451.264282 1537.000000,440.000000 
z"/>
<path fill="#000000" opacity="1.000000" stroke="none" 
	d="
M1090.990479,432.517639 
	C1087.160767,446.776703 1078.106689,448.642944 1067.201294,448.933319 
	C1055.938110,449.233185 1044.660645,449.000000 1033.005493,449.000000 
	C1033.005493,457.459717 1033.005493,465.530579 1033.005493,473.795166 
	C1027.884521,473.795166 1023.151245,473.795166 1018.208496,473.795166 
	C1018.208496,451.575806 1018.208496,429.526459 1018.208496,407.000000 
	C1034.399170,407.000000 1050.486450,406.946777 1066.572754,407.044769 
	C1069.801636,407.064423 1073.084229,407.383392 1076.243652,408.039062 
	C1086.948853,410.260620 1089.101074,415.175568 1090.953247,426.093018 
	C1091.282471,428.034180 1090.999146,430.079254 1090.990479,432.517639 
M1064.621826,417.996460 
	C1054.156006,417.520752 1043.690186,417.045044 1033.280029,416.571869 
	C1033.280029,424.324005 1033.280029,431.049316 1033.280029,438.000000 
	C1044.168457,438.000000 1054.778564,438.037018 1065.388306,437.986176 
	C1071.831299,437.955322 1076.009766,433.747803 1075.993896,427.476318 
	C1075.976196,420.493134 1073.234253,418.010223 1064.621826,417.996460 
z"/>
<path fill="#000000" opacity="1.000000" stroke="none" 
	d="
M407.954529,308.995758 
	C411.314636,312.370544 415.532623,315.283936 416.905640,319.195831 
	C417.949524,322.170105 415.377106,326.413635 414.404633,330.126984 
	C401.400909,325.823730 389.911041,328.497375 378.538666,332.861450 
	C359.477509,340.176025 343.280762,352.147125 327.199921,364.312958 
	C323.733643,366.935333 320.320618,369.628082 316.555206,372.542175 
	C317.079620,368.345215 333.608154,350.346710 341.315826,344.961609 
	C351.350861,337.950439 361.342407,330.876953 371.277100,323.883453 
	C367.738129,322.502136 363.575012,320.877167 359.641266,319.341766 
	C361.986786,313.783783 364.384796,307.741241 367.138702,301.865479 
	C367.722229,300.620514 369.555145,299.274017 370.898071,299.178497 
	C384.213867,298.231201 396.940796,299.788177 407.954529,308.995758 
z"/>
<path fill="#000000" opacity="1.000000" stroke="none" 
	d="
M858.890503,455.000000 
	C848.776367,455.000000 839.152527,455.000000 828.798462,455.000000 
	C828.798462,444.078583 828.798462,433.404297 828.798462,422.374817 
	C839.905579,422.374817 851.720398,422.374817 863.769409,422.374817 
	C863.769409,433.056732 863.769409,443.783264 863.769409,455.000000 
	C862.261902,455.000000 860.821350,455.000000 858.890503,455.000000 
z"/>
<path fill="#000000" opacity="1.000000" stroke="none" 
	d="
M1246.000000,426.137207 
	C1245.606812,423.042938 1246.294556,421.861816 1249.360596,421.922424 
	C1259.679688,422.126556 1270.005127,422.000092 1280.663940,422.000092 
	C1280.663940,432.850433 1280.663940,443.590759 1280.663940,454.666626 
	C1269.477051,454.666626 1258.070312,454.666626 1246.000000,454.666626 
	C1246.000000,445.463043 1246.000000,436.042877 1246.000000,426.137207 
z"/>
<path fill="#FFFFFF" opacity="1.000000" stroke="none" 
	d="
M132.775650,206.579605 
	C126.233879,212.431274 119.692108,218.282944 112.745262,224.496964 
	C122.483154,225.412811 131.965714,226.304657 141.448257,227.196503 
	C141.532608,227.419922 141.616943,227.643356 141.701279,227.866791 
	C132.856888,230.546677 124.012497,233.226578 114.071419,236.238770 
	C122.854950,241.216110 130.729645,245.678421 138.604340,250.140747 
	C138.566666,250.424377 138.529007,250.708023 138.491333,250.991653 
	C129.412582,249.980957 120.333839,248.970261 110.281357,247.851166 
	C116.177078,255.636780 121.486153,262.647675 126.795227,269.658600 
	C126.599907,269.969177 126.404594,270.279755 126.209274,270.590332 
	C118.715515,266.237183 111.221764,261.884003 102.485649,256.809174 
	C104.694984,266.660706 106.578476,275.059265 108.461960,283.457825 
	C108.098595,283.607422 107.735229,283.757019 107.371857,283.906647 
	C102.273865,276.618317 97.175880,269.329987 91.628387,261.399048 
	C90.010315,269.057251 88.529999,276.184998 86.971062,283.295532 
	C86.765083,284.235016 86.158249,285.086578 85.737076,285.978882 
	C85.157822,285.077972 84.277534,284.247406 84.047852,283.264771 
	C82.481995,276.565643 81.052994,269.834534 79.438805,262.470337 
	C73.367958,268.353638 70.580688,276.560333 63.187294,280.660492 
	C64.880302,273.242188 66.573318,265.823883 68.577690,257.041290 
	C60.534630,261.405365 53.682259,265.123383 46.829884,268.841400 
	C46.534454,268.393890 46.239029,267.946381 45.943600,267.498840 
	C50.586948,261.144897 55.230297,254.790970 60.388592,247.732376 
	C50.516838,248.928787 41.528156,250.018173 32.539474,251.107574 
	C32.409275,250.829956 32.279079,250.552353 32.148880,250.274750 
	C39.978806,245.872040 47.808735,241.469330 56.814011,236.405746 
	C46.704918,233.279800 37.625679,230.472321 27.616114,227.377167 
	C37.956688,226.371918 47.361118,225.457672 58.259445,224.398193 
	C50.451202,217.644012 43.411236,211.554398 35.176540,204.431335 
	C45.247173,207.806198 53.962784,210.726959 63.926994,214.066147 
	C59.804420,204.906174 56.062626,196.592239 52.320831,188.278305 
	C52.488422,188.118118 52.656013,187.957916 52.823608,187.797714 
	C59.503445,193.943619 66.183281,200.089523 73.500000,206.821396 
	C73.500000,196.772369 73.500000,187.611282 73.500000,177.056381 
	C76.655693,184.225876 79.267464,190.315018 82.022179,196.338776 
	C83.070724,198.631653 84.447594,200.774399 85.674828,202.985565 
	C86.783493,200.823944 87.995361,198.708191 88.980316,196.491592 
	C91.364838,191.125305 93.643616,185.712036 96.829880,180.446777 
	C96.829880,188.870316 96.829880,197.293854 96.829880,207.003479 
	C101.619766,202.852554 105.428391,199.420959 109.396812,196.185379 
	C110.750046,195.082016 112.504974,194.471329 114.076363,193.635544 
	C114.044456,195.416672 114.486694,197.381592 113.882324,198.940826 
	C112.608452,202.227356 110.670341,205.250000 109.237701,208.484085 
	C108.510406,210.125885 108.288689,211.991638 107.815125,213.847412 
	C115.997345,211.091553 123.563858,208.543045 131.732971,206.131790 
	C132.482254,206.372559 132.628952,206.476074 132.775650,206.579605 
z"/>
<path fill="#FFFFFF" opacity="1.000000" stroke="none" 
	d="
M132.130371,206.094574 
	C132.488861,205.677124 133.052505,205.434143 133.616150,205.191162 
	C133.484497,205.526474 133.352844,205.861786 132.998413,206.388367 
	C132.628952,206.476074 132.482254,206.372559 132.130371,206.094574 
z"/>
<path fill="#FFFFFF" opacity="1.000000" stroke="none" 
	d="
M1140.006348,209.000000 
	C1135.198242,209.000000 1130.888550,209.000000 1126.290894,209.000000 
	C1126.290894,184.732025 1126.290894,160.672592 1126.290894,136.229340 
	C1127.586914,136.157837 1129.017578,136.010284 1130.448242,136.009933 
	C1179.077637,135.997971 1227.708008,135.840988 1276.335938,136.116547 
	C1287.881470,136.181976 1299.268311,138.618790 1308.470337,146.273972 
	C1313.857300,150.755341 1317.949829,156.973358 1318.700073,163.892822 
	C1319.675537,172.889771 1320.199829,182.099319 1315.757935,190.818939 
	C1310.880127,200.394379 1302.502563,205.006927 1292.825439,206.782578 
	C1283.692017,208.458466 1274.230835,208.861755 1264.909058,208.908951 
	C1223.441895,209.118881 1181.973022,209.000000 1140.006348,209.000000 
z"/>
<path fill="#FFFFFF" opacity="1.000000" stroke="none" 
	d="
M1447.000000,212.000000 
	C1447.000000,188.009033 1447.085693,164.517441 1446.916748,141.027679 
	C1446.888184,137.057922 1448.046753,135.905167 1452.021729,135.918594 
	C1491.672852,136.052734 1531.333862,135.480301 1570.972046,136.204010 
	C1593.097900,136.607971 1613.405762,143.235275 1630.399536,158.693848 
	C1645.200928,172.158051 1653.421509,188.488464 1656.067627,208.129532 
	C1658.515869,226.303177 1657.582153,244.179871 1649.503540,260.698517 
	C1639.076782,282.018646 1622.587769,296.843323 1599.052246,303.063751 
	C1589.753906,305.521301 1580.395752,306.017426 1570.859253,306.062653 
	C1532.454224,306.244720 1494.050293,306.688934 1455.645386,306.954468 
	C1452.807861,306.974121 1449.965698,306.345276 1447.000000,306.003448 
	C1447.000000,274.447174 1447.000000,243.473587 1447.000000,212.000000 
z"/>
<path fill="#FFFFFF" opacity="1.000000" stroke="none" 
	d="
M1975.347656,165.772980 
	C1976.342285,175.429337 1976.513184,184.422256 1971.153198,192.978699 
	C1965.838989,201.462051 1957.841797,205.222076 1948.935913,206.789429 
	C1939.781250,208.400574 1930.333496,208.866455 1921.009888,208.909180 
	C1876.700439,209.112259 1832.389771,209.000000 1788.079468,209.000000 
	C1786.260986,209.000000 1784.442505,209.000000 1782.602051,209.000000 
	C1782.602051,184.695450 1782.602051,160.562103 1782.602051,136.000000 
	C1784.996948,136.000000 1786.793823,136.000000 1788.590698,136.000000 
	C1836.565674,136.000000 1884.541504,135.860321 1932.515259,136.098724 
	C1944.432739,136.157944 1956.015503,138.252014 1965.454712,146.767059 
	C1971.081665,151.843140 1974.438721,157.878403 1975.347656,165.772980 
z"/>
<path fill="#FFFFFF" opacity="1.000000" stroke="none" 
	d="
M1406.816406,456.672791 
	C1403.276489,458.650482 1400.067383,461.613831 1396.727661,461.769165 
	C1384.318848,462.346191 1371.867065,461.999298 1359.217407,461.999298 
	C1359.217407,446.923920 1359.217407,432.205414 1359.217407,418.012543 
	C1372.473755,418.012543 1385.661865,417.508331 1398.778442,418.258636 
	C1404.089111,418.562408 1409.747803,424.505432 1409.120972,430.565918 
	C1408.276733,438.727264 1408.297607,446.977509 1407.895996,455.187073 
	C1407.875977,455.593445 1407.368164,455.975922 1406.816406,456.672791 
z"/>
<path fill="#FFFFFF" opacity="1.000000" stroke="none" 
	d="
M753.000000,434.138885 
	C752.668701,440.515411 752.306335,446.409943 752.014893,452.307983 
	C751.725769,458.158325 746.832703,461.644806 740.459290,461.871918 
	C728.170837,462.309784 715.855652,461.999603 703.276428,461.999603 
	C703.276428,447.027771 703.276428,432.292267 703.276428,416.528168 
	C716.255798,417.049530 729.305420,416.999664 742.215088,418.319061 
	C749.348145,419.048096 753.858459,424.547516 753.000000,434.138885 
z"/>
<path fill="#FFFFFF" opacity="1.000000" stroke="none" 
	d="
M507.000000,453.947693 
	C507.000000,442.798462 507.121338,432.138763 506.931793,421.484650 
	C506.868561,417.931396 508.110321,416.859924 511.563110,416.936615 
	C520.218079,417.128784 528.882507,416.884369 537.538269,417.057648 
	C540.943115,417.125793 544.411377,417.525269 547.716553,418.327118 
	C553.925720,419.833527 557.895996,424.879730 557.921631,431.677032 
	C557.946960,438.406128 557.218506,445.134583 557.039734,451.869110 
	C556.899597,457.145905 553.277954,461.515198 545.406616,461.854218 
	C532.802124,462.397186 520.157043,461.999664 507.000000,461.999664 
	C507.000000,459.311676 507.000000,456.875580 507.000000,453.947693 
z"/>
<path fill="#FFFFFF" opacity="1.000000" stroke="none" 
	d="
M1501.746826,420.373993 
	C1502.647217,424.174805 1503.882690,427.627289 1503.888550,431.081848 
	C1503.902344,439.299408 1503.241455,447.515656 1503.042480,455.737000 
	C1502.946777,459.696686 1499.943481,461.538971 1497.250000,461.707245 
	C1488.309570,462.265778 1479.164551,463.073517 1470.383423,461.806763 
	C1457.891846,460.004669 1458.000000,459.255157 1458.000000,446.696289 
	C1458.000000,441.371918 1457.992798,436.047546 1458.001587,430.723175 
	C1458.018066,420.769928 1460.459351,417.485046 1470.041504,417.142181 
	C1479.073608,416.819000 1488.152222,417.585266 1497.198486,418.085297 
	C1498.671265,418.166718 1500.082886,419.351715 1501.746826,420.373993 
z"/>
<path fill="#FFFFFF" opacity="1.000000" stroke="none" 
	d="
M652.000000,427.325745 
	C652.000000,435.767944 652.015869,443.745514 651.995483,451.723022 
	C651.975830,459.394012 650.089172,461.652069 642.343994,461.931488 
	C633.887146,462.236603 625.396362,462.309113 616.947083,461.913330 
	C608.870911,461.535034 606.311035,459.044128 606.121216,450.831116 
	C605.920105,442.131744 606.425476,433.391815 607.087830,424.705109 
	C607.545898,418.697906 612.760803,417.307404 617.321228,417.183685 
	C626.344910,416.938934 635.402588,417.533691 644.431213,418.046204 
	C649.750610,418.348175 652.146790,421.628357 652.000000,427.325745 
z"/>
<path fill="#FFFFFF" opacity="1.000000" stroke="none" 
	d="
M1140.999146,428.987732 
	C1144.582031,435.809723 1148.130859,442.251221 1152.062500,449.387817 
	C1141.190552,449.387817 1130.857056,449.387817 1120.300415,449.387817 
	C1125.269043,440.164185 1130.416992,430.607666 1136.058960,420.133850 
	C1137.874634,423.269714 1139.419800,425.938446 1140.999146,428.987732 
z"/>
<path fill="#FFFFFF" opacity="1.000000" stroke="none" 
	d="
M1065.075195,417.998108 
	C1073.234253,418.010223 1075.976196,420.493134 1075.993896,427.476318 
	C1076.009766,433.747803 1071.831299,437.955322 1065.388306,437.986176 
	C1054.778564,438.037018 1044.168457,438.000000 1033.280029,438.000000 
	C1033.280029,431.049316 1033.280029,424.324005 1033.280029,416.571869 
	C1043.690186,417.045044 1054.156006,417.520752 1065.075195,417.998108 
z"/>
</svg>